<svg width="40" height="40" viewBox="0 0 40 40" fill="none" xmlns="http://www.w3.org/2000/svg">
<rect width="40" height="40" rx="8" fill="#D2E4FF"/>
<path d="M17.675 21.2L18.55 18.35L16.25 16.5H19.1L20 13.7L20.9 16.5H23.75L21.425 18.35L22.3 21.2L20 19.425L17.675 21.2ZM14 30.5V22.775C13.3667 22.075 12.875 21.275 12.525 20.375C12.175 19.475 12 18.5167 12 17.5C12 15.2667 12.775 13.375 14.325 11.825C15.875 10.275 17.7667 9.5 20 9.5C22.2333 9.5 24.125 10.275 25.675 11.825C27.225 13.375 28 15.2667 28 17.5C28 18.5167 27.825 19.475 27.475 20.375C27.125 21.275 26.6333 22.075 26 22.775V30.5L20 28.5L14 30.5ZM20 23.5C21.6667 23.5 23.0833 22.9167 24.25 21.75C25.4167 20.5833 26 19.1667 26 17.5C26 15.8333 25.4167 14.4167 24.25 13.25C23.0833 12.0833 21.6667 11.5 20 11.5C18.3333 11.5 16.9167 12.0833 15.75 13.25C14.5833 14.4167 14 15.8333 14 17.5C14 19.1667 14.5833 20.5833 15.75 21.75C16.9167 22.9167 18.3333 23.5 20 23.5ZM16 27.525L20 26.5L24 27.525V24.425C23.4167 24.7583 22.7875 25.0208 22.1125 25.2125C21.4375 25.4042 20.7333 25.5 20 25.5C19.2667 25.5 18.5625 25.4042 17.8875 25.2125C17.2125 25.0208 16.5833 24.7583 16 24.425V27.525Z" fill="#00355F"/>
</svg>
