<svg width="56" height="56" viewBox="0 0 56 56" fill="none" xmlns="http://www.w3.org/2000/svg">
<rect width="56" height="56" rx="12" fill="#00355F" fill-opacity="0.1"/>
<path d="M30.9167 27.7083C31.325 27.7083 31.6701 27.5674 31.9521 27.2854C32.234 27.0035 32.375 26.6583 32.375 26.25C32.375 25.8417 32.234 25.4965 31.9521 25.2146C31.6701 24.9326 31.325 24.7917 30.9167 24.7917C30.5083 24.7917 30.1632 24.9326 29.8813 25.2146C29.5993 25.4965 29.4583 25.8417 29.4583 26.25C29.4583 26.6583 29.5993 27.0035 29.8813 27.2854C30.1632 27.5674 30.5083 27.7083 30.9167 27.7083ZM25.0833 27.7083C25.4917 27.7083 25.8368 27.5674 26.1187 27.2854C26.4007 27.0035 26.5417 26.6583 26.5417 26.25C26.5417 25.8417 26.4007 25.4965 26.1187 25.2146C25.8368 24.9326 25.4917 24.7917 25.0833 24.7917C24.675 24.7917 24.3299 24.9326 24.0479 25.2146C23.766 25.4965 23.625 25.8417 23.625 26.25C23.625 26.6583 23.766 27.0035 24.0479 27.2854C24.3299 27.5674 24.675 27.7083 25.0833 27.7083ZM28 33.8333C29.1667 33.8333 30.2215 33.5125 31.1646 32.8708C32.1076 32.2292 32.8028 31.3833 33.25 30.3333H22.75C23.1972 31.3833 23.8924 32.2292 24.8354 32.8708C25.7785 33.5125 26.8333 33.8333 28 33.8333ZM28 38.5C26.5417 38.5 25.1757 38.2229 23.9021 37.6688C22.6285 37.1146 21.5201 36.366 20.5771 35.4229C19.634 34.4799 18.8854 33.3715 18.3313 32.0979C17.7771 30.8243 17.5 29.4583 17.5 28C17.5 26.5417 17.7771 25.1757 18.3313 23.9021C18.8854 22.6285 19.634 21.5201 20.5771 20.5771C21.5201 19.634 22.6285 18.8854 23.9021 18.3313C25.1757 17.7771 26.5417 17.5 28 17.5C29.4583 17.5 30.8243 17.7771 32.0979 18.3313C33.3715 18.8854 34.4799 19.634 35.4229 20.5771C36.366 21.5201 37.1146 22.6285 37.6688 23.9021C38.2229 25.1757 38.5 26.5417 38.5 28C38.5 29.4583 38.2229 30.8243 37.6688 32.0979C37.1146 33.3715 36.366 34.4799 35.4229 35.4229C34.4799 36.366 33.3715 37.1146 32.0979 37.6688C30.8243 38.2229 29.4583 38.5 28 38.5ZM28.4667 23.9167C28.7972 23.9167 29.1715 23.8535 29.5896 23.7271C30.0076 23.6007 30.2167 23.3139 30.2167 22.8667C30.2167 22.6333 30.1389 22.4292 29.9833 22.2542C29.8278 22.0792 29.6333 21.9917 29.4 21.9917C29.2444 21.9917 29.0938 22.0208 28.9479 22.0792C28.8021 22.1375 28.6417 22.1667 28.4667 22.1667C28.0583 22.1667 27.7132 22.0257 27.4312 21.7438C27.1493 21.4618 27.0083 21.1167 27.0083 20.7083C27.0083 20.4944 27.0424 20.3146 27.1104 20.1688C27.1785 20.0229 27.2806 19.9208 27.4167 19.8625C27.0472 19.9014 26.6875 19.95 26.3375 20.0083C25.9875 20.0667 25.6472 20.1639 25.3167 20.3C25.2972 20.3583 25.2826 20.4264 25.2729 20.5042C25.2632 20.5819 25.2583 20.65 25.2583 20.7083C25.2583 21.5833 25.5743 22.3368 26.2063 22.9688C26.8382 23.6007 27.5917 23.9167 28.4667 23.9167Z" fill="#00355F"/>
</svg>
